<?xml version="1.0" standalone="no"?><!DOCTYPE svg PUBLIC "-//W3C//DTD SVG 1.1//EN" "http://www.w3.org/Graphics/SVG/1.1/DTD/svg11.dtd"><svg t="1556068917627" class="icon" style="" viewBox="0 0 2033 1024" version="1.1" xmlns="http://www.w3.org/2000/svg" p-id="3085" xmlns:xlink="http://www.w3.org/1999/xlink" width="200" height="200" fill="currentColor"><defs><style type="text/css"></style></defs><path d="M1432.36421295 348.832418c160.980349 29.746369 277.716099 170.104235 277.841084 333.834249 0 188.227023-153.10631 341.333333-341.333333 341.333333H1232.38862395c-12.248505 0-23.497132-6.499207-29.496399-17.12291-6.124252-10.498718-6.124252-23.622116 0-34.120835 6.124252-10.498718 17.372879-17.12291 29.496399-17.122909h136.48334c150.606615 0 273.091664-122.485048 273.091663-273.091664-0.124985-139.233004-105.487123-255.718784-243.970218-269.84206-16.248017-1.749786-29.121445-14.873184-30.371293-31.246186-14.373245-175.603564-163.730013-313.211766-339.958501-313.211766s-325.585256 137.608202-339.958501 313.211766c-1.374832 16.373001-14.123276 29.371415-30.371292 31.246186C518.85072595 426.822898 413.48858795 543.433663 413.23861795 682.541682c0 150.606615 122.485048 273.091664 273.091664 273.091664h132.233858c18.872696 0 34.120835 15.248139 34.120835 34.120834 0 18.872696-15.248139 34.120835-34.120835 34.120835H686.33028195C498.10325895 1023.875015 344.99694895 870.768705 344.99694895 682.541682c0.124985-163.730013 116.860735-304.08788 277.841083-333.834249C652.45941695 151.106554 825.18833195 0 1027.53863095 0c202.475284 0 375.079214 151.106554 404.825582 348.832418z" fill="" p-id="3086"></path><path d="M1188.26900995 795.027951a34.020847 34.020847 0 0 1 0 48.244111L1051.78567095 979.755401a34.020847 34.020847 0 0 1-48.244111 0L866.93323595 843.272062c-12.873429-13.373368-12.748444-34.620774 0.374954-47.869157 13.123398-13.123398 34.495789-13.373368 47.869157-0.374954l112.361284 112.361284 112.361284-112.361284c13.373368-13.373368 34.995728-13.373368 48.369095 0z" fill="#A5D8D3" p-id="3087"></path><path d="M1027.66361495 1011.001587c-14.123276 0-28.371537-5.374344-39.120224-16.248017L851.68509695 858.020261c-20.872452-21.622361-20.497498-56.368119 0.624924-77.615525 21.247406-21.247406 55.993165-21.497376 77.615525-0.624924l0.24997 0.24997 97.363115 97.363114 97.363114-97.363114c21.622361-21.622361 56.743073-21.622361 78.24045 0 21.622361 21.622361 21.622361 56.743073 0 78.240449L1066.78383995 994.75357c-10.748688 10.873673-24.996949 16.248017-39.120225 16.248017zM882.18137395 828.398877l136.358355 136.358355c4.99939 4.99939 13.248383 4.99939 18.247773 0l136.483339-136.48334c4.99939-4.99939 4.99939-13.123398 0-18.247772-4.99939-4.99939-13.248383-4.99939-18.247773 0L1027.53863095 937.385573 900.30416195 810.151105c-4.99939-4.74942-12.998413-4.624435-17.997803 0.249969-4.74942 4.99939-4.874405 12.998413-0.124985 17.997803z" fill="" p-id="3088"></path><path d="M1061.65946495 744.15916c0 18.872696-15.248139 34.120835-34.120834 34.120835-18.872696 0-34.120835-15.248139-34.120835-34.120835V539.309166c0-18.872696 15.248139-34.120835 34.120835-34.120834 18.872696 0 34.120835 15.248139 34.120834 34.120834v204.849994z" fill="#A5D8D3" p-id="3089"></path><path d="M1027.53863095 799.527401c-30.496277 0-55.368241-24.871964-55.368242-55.368241V539.309166c0-30.496277 24.871964-55.368241 55.368242-55.368241s55.368241 24.871964 55.368241 55.368241v204.72501c0 30.621262-24.746979 55.493226-55.368241 55.493225z m0-273.091663c-7.12413 0-12.873429 5.749298-12.873429 12.873428v204.72501c0 7.12413 5.749298 12.873429 12.873429 12.873428 7.12413 0 12.873429-5.749298 12.873428-12.873428V539.309166c0-7.12413-5.749298-12.873429-12.873428-12.873428z" p-id="3090"></path></svg>