<?xml version="1.0" standalone="no"?><!DOCTYPE svg PUBLIC "-//W3C//DTD SVG 1.1//EN" "http://www.w3.org/Graphics/SVG/1.1/DTD/svg11.dtd"><svg t="1553854981265" class="icon" style="" viewBox="0 0 1024 1024" version="1.1" xmlns="http://www.w3.org/2000/svg" p-id="3079" xmlns:xlink="http://www.w3.org/1999/xlink" width="200" height="200"><defs><style type="text/css"></style></defs><path d="M977.92 957.44H294.4v-120.32h58.88v61.44h565.76V125.44H325.12V66.56h652.8z" fill="#00A3F0" p-id="3080"></path><path d="M555.52 839.68H46.08v-58.88h509.44c138.24 0 248.32-112.64 248.32-248.32S693.76 281.6 555.52 281.6V220.16c168.96 0 309.76 138.24 309.76 309.76s-138.24 309.76-309.76 309.76z" fill="#00A3F0" p-id="3081"></path><path d="M158.72 642.56v-225.28h64c33.28 0 61.44 10.24 84.48 30.72 23.04 20.48 33.28 46.08 33.28 79.36 0 35.84-10.24 61.44-33.28 84.48-23.04 20.48-51.2 30.72-87.04 30.72H158.72z m28.16-197.12v174.08h33.28c28.16 0 51.2-7.68 66.56-23.04 15.36-15.36 23.04-38.4 23.04-66.56s-7.68-48.64-25.6-64c-15.36-15.36-38.4-20.48-64-20.48H186.88zM547.84 642.56h-33.28l-38.4-61.44c-7.68-12.8-15.36-20.48-20.48-25.6-5.12-5.12-12.8-7.68-23.04-7.68h-20.48v94.72H384v-225.28h69.12c23.04 0 38.4 5.12 51.2 15.36 12.8 10.24 17.92 25.6 17.92 43.52 0 30.72-15.36 51.2-48.64 61.44 5.12 2.56 12.8 5.12 15.36 10.24 5.12 5.12 10.24 12.8 17.92 25.6l40.96 69.12z m-135.68-197.12v79.36h33.28c12.8 0 23.04-5.12 33.28-12.8 7.68-7.68 12.8-17.92 12.8-30.72s-2.56-20.48-10.24-28.16c-7.68-7.68-17.92-10.24-33.28-10.24h-35.84z" fill="#00A3F0" p-id="3082"></path></svg>