<?xml version="1.0" standalone="no"?><!DOCTYPE svg PUBLIC "-//W3C//DTD SVG 1.1//EN" "http://www.w3.org/Graphics/SVG/1.1/DTD/svg11.dtd"><svg t="1555312595196" class="icon" style="" viewBox="0 0 1024 1024" version="1.1" xmlns="http://www.w3.org/2000/svg" p-id="3843" xmlns:xlink="http://www.w3.org/1999/xlink" width="200" height="200"><defs><style type="text/css"></style></defs><path d="M978.688 0h-235.072c-25.536 0-46.4 17.216-46.4 40.128s20.8 40.128 46.4 40.128h200.128v200.192c0 25.536 17.216 46.4 40.128 46.4S1024 306.048 1024 280.512V40.128C1024 17.216 1004.16 0 978.688 0zM47.424 0h235.008c25.536 0 46.4 17.216 46.4 40.128s-20.864 40.128-46.4 40.128H82.304v200.192c0 25.536-18.176 46.4-41.152 46.4C18.752 326.912 0 306.048 0 280.512V40.128C0.512 17.216 21.888 0 47.424 0z m931.264 1024h-235.072c-25.536 0-46.4-18.176-46.4-41.216 0-22.912 20.8-41.152 46.4-41.152h200.128v-200.256c0-25.536 17.216-46.464 40.128-46.464s40.128 20.992 40.128 46.528v240.32c0 22.976-19.84 42.24-45.312 42.24zM47.424 1024h235.008c25.536 0 46.4-18.176 46.4-41.216 0-22.912-20.864-41.152-46.4-41.152H82.304v-200.256c0-25.536-18.176-46.464-41.152-46.464-22.4 0.064-41.152 20.992-41.152 46.528v240.32c0.512 22.976 21.888 42.24 47.424 42.24z m184.448-223.616h570.112V229.952H231.872v570.432z m63.104-507.392h444.48v444.8H294.976v-444.8z m0 0" fill="#515151" p-id="3844"></path></svg>