<?xml version="1.0" standalone="no"?><!DOCTYPE svg PUBLIC "-//W3C//DTD SVG 1.1//EN" "http://www.w3.org/Graphics/SVG/1.1/DTD/svg11.dtd"><svg t="1555313004177" class="icon" style="" viewBox="0 0 1024 1024" version="1.1" xmlns="http://www.w3.org/2000/svg" p-id="7193" xmlns:xlink="http://www.w3.org/1999/xlink" width="200" height="200"><defs><style type="text/css"></style></defs><path d="M446.638298 4.357447L5.446809 214.604255v555.574468l567.557446 249.46383 445.548936-250.553191v-555.574468L446.638298 4.357447z m1.089362 34.859574l523.982978 191.72766-173.20851 88.238298-510.910639-202.621277 160.136171-77.344681zM577.361702 432.476596L55.557447 226.587234l192.817021-92.595745c1.089362 1.089362 3.268085 3.268085 5.446809 4.357447l504.374468 200.442553L577.361702 432.476596zM38.12766 254.910638L555.574468 458.621277v518.53617L38.12766 749.480851V254.910638z m550.127659 718.978724V462.978723L985.87234 261.446809v490.212765L588.255319 973.889362z" fill="#515151" p-id="7194"></path><path d="M403.06383 596.970213l-224.408511-87.148936c-8.714894-3.268085-17.429787 1.089362-20.697872 9.804255-3.268085 8.714894 1.089362 17.429787 9.804255 20.697872l224.408511 87.148936c2.178723 1.089362 4.357447 1.089362 5.446808 1.089362 6.53617 0 13.07234-4.357447 15.251064-10.893617 2.178723-8.714894-1.089362-17.429787-9.804255-20.697872z" fill="#515151" p-id="7195"></path></svg>