<?xml version="1.0" standalone="no"?><!DOCTYPE svg PUBLIC "-//W3C//DTD SVG 1.1//EN" "http://www.w3.org/Graphics/SVG/1.1/DTD/svg11.dtd"><svg t="1555987984079" class="icon" style="" viewBox="0 0 1024 1024" version="1.1" xmlns="http://www.w3.org/2000/svg" p-id="4814" xmlns:xlink="http://www.w3.org/1999/xlink" width="200" height="200" fill="currentColor"><defs><style type="text/css"></style></defs><path d="M581.7 232.3L542.8 437c-0.4 3.1 0.7 6.2 3 8.4s5.4 3.2 8.5 2.7c4.5 0 15.9-8.1 34.2-24.4l132.4-120c24.2-24.8 57-39.3 91.6-40.4 50.1 0 75.1 21.5 75.1 64.4 0 42.9-29.7 75.5-89 97.6l-171.3 62.3c-25.9 10.4-38.9 19.3-38.9 26.7 0 7.4 13 15.5 38.9 24.4l171.3 62.2c59.3 22.3 89 54.1 89 95.6 0 44.4-25 66.7-75.1 66.7-34.4-1.1-67.1-15.4-91.3-40l-132.4-120c-18.3-16.3-29.7-24.4-34.2-24.4-3.1-0.5-6.2 0.5-8.5 2.7s-3.3 5.3-3 8.4v8.8l4.1 26.1 34.2 169c3.1 12.3 5 24.9 5.6 37.6 0 62.6-25 93.9-75.1 93.9-50.1 0-75.1-31.3-75.1-93.9 0.1-12.6 1.6-25.2 4.5-37.6l36.6-169c2.5-10.9 4-22 4.5-33.2 0-8.9-3.8-13.3-11.5-13.3-4.5 0-15.9 8.1-34.2 24.4l-132.4 120c-24.9 25-58.6 39.4-93.9 40-49.4 0.4-74.2-20.9-74.2-63.8s29.7-75.5 89-97.6l169-62.2c25.9-10.4 38.9-18.5 38.9-24.4 0-8.9-13-17.8-38.9-26.7l-169-62.2c-59.3-22.4-89-54.3-89-95.8 0-41.4 25-62.9 75.1-64.4 34.1 0.2 66.9 13.7 91.3 37.6l132.4 120c18.3 16.3 29.7 24.4 34.2 24.4 7.6 0 11.5-4.4 11.5-13.3-0.5-11.2-2-22.3-4.5-33.2l-36.6-169c-2.9-12.3-4.4-24.9-4.5-37.6 0-63.7 25-95.6 75.1-95.6 50.1 0 75.1 31.9 75.1 95.6 0.1 12.6-1.1 25.3-3.6 37.8z m0 0" p-id="4815"></path></svg>