<?xml version="1.0" standalone="no"?><!DOCTYPE svg PUBLIC "-//W3C//DTD SVG 1.1//EN" "http://www.w3.org/Graphics/SVG/1.1/DTD/svg11.dtd"><svg t="1555920054824" class="icon" style="" viewBox="0 0 1024 1024" version="1.1" xmlns="http://www.w3.org/2000/svg" p-id="16715" xmlns:xlink="http://www.w3.org/1999/xlink" width="200" height="200" fill="currentColor"><defs><style type="text/css"></style></defs><path d="M71.68 71.68h120.32v120.32H71.68zM650.24 192h-102.4V71.68h102.4v120.32z m-153.6 0h-102.4V71.68h102.4v120.32z m-153.6 0h-102.4V71.68h102.4v120.32zM701.44 71.68h120.32v120.32h-120.32zM821.76 496.64h-120.32v-102.4h120.32v102.4z m0-153.6h-120.32v-102.4h120.32v102.4zM496.64 821.76h-102.4v-120.32h102.4v120.32z m-153.6 0h-102.4v-120.32h102.4v120.32zM71.68 701.44h120.32v120.32H71.68zM192 650.24H71.68v-102.4h120.32v102.4z m0-153.6H71.68v-102.4h120.32v102.4z m0-153.6H71.68v-102.4h120.32v102.4zM811.52 970.24h-15.36-2.56c-5.12 0-7.68-2.56-12.8-2.56-12.8-5.12-25.6-12.8-30.72-25.6-7.68-12.8-12.8-25.6-17.92-38.4-7.68-15.36-15.36-30.72-20.48-46.08-5.12-10.24-10.24-23.04-15.36-33.28-7.68-15.36-15.36-30.72-20.48-46.08 0-2.56-2.56-2.56-5.12 0-7.68 5.12-12.8 7.68-20.48 12.8-12.8 7.68-25.6 17.92-38.4 28.16-10.24 10.24-20.48 17.92-30.72 28.16l-23.04 23.04c-2.56 2.56-5.12 5.12-7.68 10.24-5.12 5.12-7.68 7.68-10.24 12.8H537.6v-2.56-194.56-296.96c17.92 12.8 35.84 25.6 53.76 40.96l61.44 46.08c15.36 10.24 30.72 23.04 43.52 33.28 20.48 15.36 38.4 30.72 58.88 43.52 15.36 12.8 33.28 25.6 48.64 35.84 15.36 12.8 33.28 25.6 48.64 35.84 12.8 10.24 25.6 17.92 35.84 28.16 20.48 15.36 38.4 28.16 58.88 43.52 2.56 2.56 7.68 5.12 10.24 7.68h-40.96c-10.24 0-20.48 0-30.72 2.56-7.68 0-15.36 0-23.04 2.56-12.8 2.56-25.6 2.56-35.84 5.12-17.92 2.56-35.84 5.12-53.76 10.24-2.56 0-2.56 2.56 0 2.56 7.68 12.8 15.36 23.04 20.48 35.84 10.24 17.92 23.04 35.84 33.28 53.76 10.24 17.92 20.48 35.84 33.28 51.2 7.68 12.8 10.24 28.16 7.68 40.96-7.68 25.6-28.16 46.08-56.32 51.2z" p-id="16716"></path></svg>